<mxfile host="app.diagrams.net" modified="2024-04-14T19:07:58.505Z" agent="Mozilla/5.0 (Windows NT 10.0; Win64; x64; rv:124.0) Gecko/20100101 Firefox/124.0" etag="Hif-SfTYxt5Ngj28sMQA" version="24.1.0" type="device">
  <diagram name="Página-1" id="13HFTKK89TZIemzqNeJ2">
    <mxGraphModel dx="1522" dy="1854" grid="1" gridSize="10" guides="1" tooltips="1" connect="1" arrows="1" fold="1" page="1" pageScale="1" pageWidth="827" pageHeight="1169" math="0" shadow="0">
      <root>
        <mxCell id="0" />
        <mxCell id="1" parent="0" />
        <mxCell id="bsZAC80GuOrA59eIhcdJ-1" value="Usuário" style="shape=umlActor;verticalLabelPosition=bottom;verticalAlign=top;html=1;outlineConnect=0;" vertex="1" parent="1">
          <mxGeometry x="100" y="290" width="30" height="60" as="geometry" />
        </mxCell>
        <mxCell id="bsZAC80GuOrA59eIhcdJ-2" value="&lt;div&gt;Adicionar nova&lt;/div&gt;&lt;div&gt;&amp;nbsp;tarefa&lt;/div&gt;" style="ellipse;whiteSpace=wrap;html=1;" vertex="1" parent="1">
          <mxGeometry x="220" y="120" width="90" height="50" as="geometry" />
        </mxCell>
        <mxCell id="bsZAC80GuOrA59eIhcdJ-4" value="" style="endArrow=classic;html=1;rounded=0;entryX=0;entryY=0.5;entryDx=0;entryDy=0;exitX=1;exitY=0.3333333333333333;exitDx=0;exitDy=0;exitPerimeter=0;" edge="1" parent="1" source="bsZAC80GuOrA59eIhcdJ-1" target="bsZAC80GuOrA59eIhcdJ-2">
          <mxGeometry width="50" height="50" relative="1" as="geometry">
            <mxPoint x="100" y="460" as="sourcePoint" />
            <mxPoint x="150" y="410" as="targetPoint" />
          </mxGeometry>
        </mxCell>
        <mxCell id="bsZAC80GuOrA59eIhcdJ-5" value="Editar tarefa" style="ellipse;whiteSpace=wrap;html=1;" vertex="1" parent="1">
          <mxGeometry x="210" y="300" width="90" height="50" as="geometry" />
        </mxCell>
        <mxCell id="bsZAC80GuOrA59eIhcdJ-6" value="" style="endArrow=classic;html=1;rounded=0;entryX=0;entryY=0.5;entryDx=0;entryDy=0;exitX=1;exitY=0.3333333333333333;exitDx=0;exitDy=0;exitPerimeter=0;" edge="1" parent="1" source="bsZAC80GuOrA59eIhcdJ-1" target="bsZAC80GuOrA59eIhcdJ-5">
          <mxGeometry width="50" height="50" relative="1" as="geometry">
            <mxPoint x="140" y="313" as="sourcePoint" />
            <mxPoint x="250" y="185" as="targetPoint" />
          </mxGeometry>
        </mxCell>
        <mxCell id="bsZAC80GuOrA59eIhcdJ-7" value="" style="endArrow=classic;html=1;rounded=0;exitX=1;exitY=0.5;exitDx=0;exitDy=0;entryX=0;entryY=0.5;entryDx=0;entryDy=0;" edge="1" parent="1" source="bsZAC80GuOrA59eIhcdJ-2" target="bsZAC80GuOrA59eIhcdJ-8">
          <mxGeometry width="50" height="50" relative="1" as="geometry">
            <mxPoint x="140" y="320" as="sourcePoint" />
            <mxPoint x="440" y="130" as="targetPoint" />
          </mxGeometry>
        </mxCell>
        <mxCell id="bsZAC80GuOrA59eIhcdJ-8" value="&lt;div&gt;Selecionar tipo da tarefa&lt;br&gt;&lt;/div&gt;" style="ellipse;whiteSpace=wrap;html=1;" vertex="1" parent="1">
          <mxGeometry x="354" y="-20" width="120" height="70" as="geometry" />
        </mxCell>
        <mxCell id="bsZAC80GuOrA59eIhcdJ-9" value="1. Data" style="ellipse;whiteSpace=wrap;html=1;" vertex="1" parent="1">
          <mxGeometry x="520" y="-40" width="60" height="30" as="geometry" />
        </mxCell>
        <mxCell id="bsZAC80GuOrA59eIhcdJ-10" value="2. Prazo" style="ellipse;whiteSpace=wrap;html=1;" vertex="1" parent="1">
          <mxGeometry x="520" width="60" height="30" as="geometry" />
        </mxCell>
        <mxCell id="bsZAC80GuOrA59eIhcdJ-11" value="3. Livre" style="ellipse;whiteSpace=wrap;html=1;" vertex="1" parent="1">
          <mxGeometry x="520" y="40" width="60" height="30" as="geometry" />
        </mxCell>
        <mxCell id="bsZAC80GuOrA59eIhcdJ-12" value="" style="endArrow=classic;html=1;rounded=0;exitX=1;exitY=0.5;exitDx=0;exitDy=0;entryX=0;entryY=0.5;entryDx=0;entryDy=0;" edge="1" parent="1" source="bsZAC80GuOrA59eIhcdJ-8" target="bsZAC80GuOrA59eIhcdJ-11">
          <mxGeometry width="50" height="50" relative="1" as="geometry">
            <mxPoint x="320" y="135" as="sourcePoint" />
            <mxPoint x="370" y="45" as="targetPoint" />
          </mxGeometry>
        </mxCell>
        <mxCell id="bsZAC80GuOrA59eIhcdJ-13" value="" style="endArrow=classic;html=1;rounded=0;exitX=1;exitY=0.5;exitDx=0;exitDy=0;entryX=0;entryY=0.5;entryDx=0;entryDy=0;" edge="1" parent="1" source="bsZAC80GuOrA59eIhcdJ-8" target="bsZAC80GuOrA59eIhcdJ-10">
          <mxGeometry width="50" height="50" relative="1" as="geometry">
            <mxPoint x="330" y="145" as="sourcePoint" />
            <mxPoint x="380" y="55" as="targetPoint" />
          </mxGeometry>
        </mxCell>
        <mxCell id="bsZAC80GuOrA59eIhcdJ-14" value="" style="endArrow=classic;html=1;rounded=0;exitX=1;exitY=0.5;exitDx=0;exitDy=0;entryX=0;entryY=0.5;entryDx=0;entryDy=0;" edge="1" parent="1" source="bsZAC80GuOrA59eIhcdJ-8" target="bsZAC80GuOrA59eIhcdJ-9">
          <mxGeometry width="50" height="50" relative="1" as="geometry">
            <mxPoint x="340" y="155" as="sourcePoint" />
            <mxPoint x="390" y="65" as="targetPoint" />
          </mxGeometry>
        </mxCell>
        <mxCell id="bsZAC80GuOrA59eIhcdJ-15" value="" style="endArrow=classic;html=1;rounded=0;exitX=1;exitY=0.5;exitDx=0;exitDy=0;entryX=0;entryY=0.5;entryDx=0;entryDy=0;" edge="1" parent="1" source="bsZAC80GuOrA59eIhcdJ-2" target="bsZAC80GuOrA59eIhcdJ-16">
          <mxGeometry width="50" height="50" relative="1" as="geometry">
            <mxPoint x="320" y="155" as="sourcePoint" />
            <mxPoint x="360" y="150" as="targetPoint" />
          </mxGeometry>
        </mxCell>
        <mxCell id="bsZAC80GuOrA59eIhcdJ-16" value="Selecionar nível de prioridade da tarefa" style="ellipse;whiteSpace=wrap;html=1;" vertex="1" parent="1">
          <mxGeometry x="354" y="110" width="120" height="70" as="geometry" />
        </mxCell>
        <mxCell id="bsZAC80GuOrA59eIhcdJ-17" value="1. Alta" style="ellipse;whiteSpace=wrap;html=1;" vertex="1" parent="1">
          <mxGeometry x="520" y="100" width="60" height="30" as="geometry" />
        </mxCell>
        <mxCell id="bsZAC80GuOrA59eIhcdJ-18" value="2. Média " style="ellipse;whiteSpace=wrap;html=1;" vertex="1" parent="1">
          <mxGeometry x="520" y="140" width="60" height="30" as="geometry" />
        </mxCell>
        <mxCell id="bsZAC80GuOrA59eIhcdJ-19" value="3. Baixa" style="ellipse;whiteSpace=wrap;html=1;" vertex="1" parent="1">
          <mxGeometry x="520" y="180" width="60" height="30" as="geometry" />
        </mxCell>
        <mxCell id="bsZAC80GuOrA59eIhcdJ-20" value="" style="endArrow=classic;html=1;rounded=0;exitX=1;exitY=0.5;exitDx=0;exitDy=0;entryX=0;entryY=0.5;entryDx=0;entryDy=0;" edge="1" parent="1" source="bsZAC80GuOrA59eIhcdJ-16" target="bsZAC80GuOrA59eIhcdJ-17">
          <mxGeometry width="50" height="50" relative="1" as="geometry">
            <mxPoint x="434" y="210" as="sourcePoint" />
            <mxPoint x="474" y="260" as="targetPoint" />
          </mxGeometry>
        </mxCell>
        <mxCell id="bsZAC80GuOrA59eIhcdJ-21" value="" style="endArrow=classic;html=1;rounded=0;exitX=1;exitY=0.5;exitDx=0;exitDy=0;entryX=0;entryY=0.5;entryDx=0;entryDy=0;" edge="1" parent="1" source="bsZAC80GuOrA59eIhcdJ-16" target="bsZAC80GuOrA59eIhcdJ-18">
          <mxGeometry width="50" height="50" relative="1" as="geometry">
            <mxPoint x="460" y="200" as="sourcePoint" />
            <mxPoint x="500" y="250" as="targetPoint" />
          </mxGeometry>
        </mxCell>
        <mxCell id="bsZAC80GuOrA59eIhcdJ-22" value="" style="endArrow=classic;html=1;rounded=0;exitX=1;exitY=0.5;exitDx=0;exitDy=0;entryX=0;entryY=0.5;entryDx=0;entryDy=0;" edge="1" parent="1" source="bsZAC80GuOrA59eIhcdJ-16" target="bsZAC80GuOrA59eIhcdJ-19">
          <mxGeometry width="50" height="50" relative="1" as="geometry">
            <mxPoint x="470" y="210" as="sourcePoint" />
            <mxPoint x="510" y="260" as="targetPoint" />
          </mxGeometry>
        </mxCell>
        <mxCell id="bsZAC80GuOrA59eIhcdJ-24" value="&lt;div&gt;Editar tipo da tarefa&lt;br&gt;&lt;/div&gt;" style="ellipse;whiteSpace=wrap;html=1;" vertex="1" parent="1">
          <mxGeometry x="354" y="280" width="120" height="70" as="geometry" />
        </mxCell>
        <mxCell id="bsZAC80GuOrA59eIhcdJ-25" value="1. Data" style="ellipse;whiteSpace=wrap;html=1;" vertex="1" parent="1">
          <mxGeometry x="520" y="260" width="60" height="30" as="geometry" />
        </mxCell>
        <mxCell id="bsZAC80GuOrA59eIhcdJ-26" value="2. Prazo" style="ellipse;whiteSpace=wrap;html=1;" vertex="1" parent="1">
          <mxGeometry x="520" y="300" width="60" height="30" as="geometry" />
        </mxCell>
        <mxCell id="bsZAC80GuOrA59eIhcdJ-27" value="3. Livre" style="ellipse;whiteSpace=wrap;html=1;" vertex="1" parent="1">
          <mxGeometry x="520" y="340" width="60" height="30" as="geometry" />
        </mxCell>
        <mxCell id="bsZAC80GuOrA59eIhcdJ-28" value="" style="endArrow=classic;html=1;rounded=0;exitX=1;exitY=0.5;exitDx=0;exitDy=0;entryX=0;entryY=0.5;entryDx=0;entryDy=0;" edge="1" source="bsZAC80GuOrA59eIhcdJ-24" target="bsZAC80GuOrA59eIhcdJ-27" parent="1">
          <mxGeometry width="50" height="50" relative="1" as="geometry">
            <mxPoint x="320" y="435" as="sourcePoint" />
            <mxPoint x="370" y="345" as="targetPoint" />
          </mxGeometry>
        </mxCell>
        <mxCell id="bsZAC80GuOrA59eIhcdJ-29" value="" style="endArrow=classic;html=1;rounded=0;exitX=1;exitY=0.5;exitDx=0;exitDy=0;entryX=0;entryY=0.5;entryDx=0;entryDy=0;" edge="1" source="bsZAC80GuOrA59eIhcdJ-24" target="bsZAC80GuOrA59eIhcdJ-26" parent="1">
          <mxGeometry width="50" height="50" relative="1" as="geometry">
            <mxPoint x="330" y="445" as="sourcePoint" />
            <mxPoint x="380" y="355" as="targetPoint" />
          </mxGeometry>
        </mxCell>
        <mxCell id="bsZAC80GuOrA59eIhcdJ-30" value="" style="endArrow=classic;html=1;rounded=0;exitX=1;exitY=0.5;exitDx=0;exitDy=0;entryX=0;entryY=0.5;entryDx=0;entryDy=0;" edge="1" source="bsZAC80GuOrA59eIhcdJ-24" target="bsZAC80GuOrA59eIhcdJ-25" parent="1">
          <mxGeometry width="50" height="50" relative="1" as="geometry">
            <mxPoint x="340" y="455" as="sourcePoint" />
            <mxPoint x="390" y="365" as="targetPoint" />
          </mxGeometry>
        </mxCell>
        <mxCell id="bsZAC80GuOrA59eIhcdJ-31" value="Editar nível de prioridade da tarefa" style="ellipse;whiteSpace=wrap;html=1;" vertex="1" parent="1">
          <mxGeometry x="354" y="410" width="120" height="70" as="geometry" />
        </mxCell>
        <mxCell id="bsZAC80GuOrA59eIhcdJ-32" value="1. Alta" style="ellipse;whiteSpace=wrap;html=1;" vertex="1" parent="1">
          <mxGeometry x="520" y="400" width="60" height="30" as="geometry" />
        </mxCell>
        <mxCell id="bsZAC80GuOrA59eIhcdJ-33" value="2. Média " style="ellipse;whiteSpace=wrap;html=1;" vertex="1" parent="1">
          <mxGeometry x="520" y="440" width="60" height="30" as="geometry" />
        </mxCell>
        <mxCell id="bsZAC80GuOrA59eIhcdJ-34" value="3. Baixa" style="ellipse;whiteSpace=wrap;html=1;" vertex="1" parent="1">
          <mxGeometry x="520" y="480" width="60" height="30" as="geometry" />
        </mxCell>
        <mxCell id="bsZAC80GuOrA59eIhcdJ-35" value="" style="endArrow=classic;html=1;rounded=0;exitX=1;exitY=0.5;exitDx=0;exitDy=0;entryX=0;entryY=0.5;entryDx=0;entryDy=0;" edge="1" source="bsZAC80GuOrA59eIhcdJ-31" target="bsZAC80GuOrA59eIhcdJ-32" parent="1">
          <mxGeometry width="50" height="50" relative="1" as="geometry">
            <mxPoint x="434" y="510" as="sourcePoint" />
            <mxPoint x="474" y="560" as="targetPoint" />
          </mxGeometry>
        </mxCell>
        <mxCell id="bsZAC80GuOrA59eIhcdJ-36" value="" style="endArrow=classic;html=1;rounded=0;exitX=1;exitY=0.5;exitDx=0;exitDy=0;entryX=0;entryY=0.5;entryDx=0;entryDy=0;" edge="1" source="bsZAC80GuOrA59eIhcdJ-31" target="bsZAC80GuOrA59eIhcdJ-33" parent="1">
          <mxGeometry width="50" height="50" relative="1" as="geometry">
            <mxPoint x="460" y="500" as="sourcePoint" />
            <mxPoint x="500" y="550" as="targetPoint" />
          </mxGeometry>
        </mxCell>
        <mxCell id="bsZAC80GuOrA59eIhcdJ-37" value="" style="endArrow=classic;html=1;rounded=0;exitX=1;exitY=0.5;exitDx=0;exitDy=0;entryX=0;entryY=0.5;entryDx=0;entryDy=0;" edge="1" source="bsZAC80GuOrA59eIhcdJ-31" target="bsZAC80GuOrA59eIhcdJ-34" parent="1">
          <mxGeometry width="50" height="50" relative="1" as="geometry">
            <mxPoint x="470" y="510" as="sourcePoint" />
            <mxPoint x="510" y="560" as="targetPoint" />
          </mxGeometry>
        </mxCell>
        <mxCell id="bsZAC80GuOrA59eIhcdJ-39" value="" style="endArrow=classic;html=1;rounded=0;exitX=1;exitY=0.5;exitDx=0;exitDy=0;entryX=0;entryY=0.5;entryDx=0;entryDy=0;" edge="1" parent="1" source="bsZAC80GuOrA59eIhcdJ-5" target="bsZAC80GuOrA59eIhcdJ-24">
          <mxGeometry width="50" height="50" relative="1" as="geometry">
            <mxPoint x="320" y="375" as="sourcePoint" />
            <mxPoint x="366" y="335" as="targetPoint" />
          </mxGeometry>
        </mxCell>
        <mxCell id="bsZAC80GuOrA59eIhcdJ-40" value="" style="endArrow=classic;html=1;rounded=0;exitX=1;exitY=0.5;exitDx=0;exitDy=0;entryX=0;entryY=0.5;entryDx=0;entryDy=0;" edge="1" parent="1" source="bsZAC80GuOrA59eIhcdJ-5" target="bsZAC80GuOrA59eIhcdJ-31">
          <mxGeometry width="50" height="50" relative="1" as="geometry">
            <mxPoint x="330" y="365" as="sourcePoint" />
            <mxPoint x="374" y="295" as="targetPoint" />
          </mxGeometry>
        </mxCell>
        <mxCell id="bsZAC80GuOrA59eIhcdJ-41" value="Excluir tarefa" style="ellipse;whiteSpace=wrap;html=1;" vertex="1" parent="1">
          <mxGeometry x="210" y="410" width="90" height="50" as="geometry" />
        </mxCell>
        <mxCell id="bsZAC80GuOrA59eIhcdJ-42" value="" style="endArrow=classic;html=1;rounded=0;entryX=0;entryY=0.5;entryDx=0;entryDy=0;exitX=1;exitY=0.3333333333333333;exitDx=0;exitDy=0;exitPerimeter=0;" edge="1" parent="1" source="bsZAC80GuOrA59eIhcdJ-1" target="bsZAC80GuOrA59eIhcdJ-41">
          <mxGeometry width="50" height="50" relative="1" as="geometry">
            <mxPoint x="140" y="320" as="sourcePoint" />
            <mxPoint x="220" y="375" as="targetPoint" />
          </mxGeometry>
        </mxCell>
        <mxCell id="bsZAC80GuOrA59eIhcdJ-43" value="Recuperar tarefa excluída" style="ellipse;whiteSpace=wrap;html=1;" vertex="1" parent="1">
          <mxGeometry x="210" y="520" width="100" height="60" as="geometry" />
        </mxCell>
        <mxCell id="bsZAC80GuOrA59eIhcdJ-44" value="" style="endArrow=classic;html=1;rounded=0;entryX=0;entryY=0.5;entryDx=0;entryDy=0;exitX=1;exitY=0.3333333333333333;exitDx=0;exitDy=0;exitPerimeter=0;" edge="1" parent="1" source="bsZAC80GuOrA59eIhcdJ-1" target="bsZAC80GuOrA59eIhcdJ-43">
          <mxGeometry width="50" height="50" relative="1" as="geometry">
            <mxPoint x="110" y="400" as="sourcePoint" />
            <mxPoint x="190" y="525" as="targetPoint" />
          </mxGeometry>
        </mxCell>
      </root>
    </mxGraphModel>
  </diagram>
</mxfile>
